<svg xmlns="http://www.w3.org/2000/svg" xmlns:xlink="http://www.w3.org/1999/xlink" viewBox="0,0,256,256" width="24px" height="24px" fill-rule="nonzero"><g fill="#ffffff" fill-rule="nonzero" stroke="none" stroke-width="1" stroke-linecap="butt" stroke-linejoin="miter" stroke-miterlimit="10" stroke-dasharray="" stroke-dashoffset="0" font-family="none" font-weight="none" font-size="none" text-anchor="none" style="mix-blend-mode: normal"><g transform="scale(10.66667,10.66667)"><path d="M12.14,2c-2.627,0 -5.545,0.983 -6.159,4.196c-0.066,0.342 0.173,0.518 0.399,0.568l2.668,0.272c0.251,-0.013 0.451,-0.247 0.499,-0.494c0.23,-1.107 1.167,-1.654 2.219,-1.654c0.568,0 1.21,0.213 1.546,0.716c0.388,0.562 0.324,1.324 0.324,1.975v0.37c-1.601,0.178 -3.689,0.287 -5.186,0.938c-1.73,0.74 -2.942,2.249 -2.942,4.468c0,2.839 1.815,4.27 4.139,4.27c1.963,0 3.023,-0.471 4.538,-1.999c0.501,0.718 0.679,1.072 1.596,1.827c0.206,0.109 0.466,0.088 0.648,-0.074v0.025c0.551,-0.486 1.556,-1.358 2.119,-1.827c0.224,-0.182 0.176,-0.467 0,-0.716c-0.505,-0.69 -1.022,-1.262 -1.022,-2.543v-4.246c0,-1.804 0.121,-3.473 -1.222,-4.715c-1.06,-1.006 -2.822,-1.357 -4.164,-1.357zM12.888,10.146c0.249,-0.016 0.498,0 0.748,0v0.592c0,1.065 0.043,1.941 -0.499,2.888c-0.439,0.769 -1.145,1.234 -1.92,1.234c-1.059,0 -1.671,-0.792 -1.671,-1.975c0,-2.035 1.6,-2.626 3.342,-2.739zM20.517,16.515c-0.699,0.01 -1.518,0.157 -2.144,0.592c-0.192,0.134 -0.164,0.321 0.05,0.296c0.705,-0.084 2.263,-0.281 2.543,0.074c0.28,0.355 -0.31,1.815 -0.573,2.468c-0.08,0.197 0.094,0.273 0.274,0.123c1.173,-0.972 1.487,-2.988 1.247,-3.283c-0.119,-0.144 -0.697,-0.28 -1.397,-0.27zM2.141,16.885c-0.146,0.019 -0.204,0.208 -0.05,0.346c2.608,2.331 6.047,3.727 9.874,3.727c2.73,0 5.917,-0.846 8.104,-2.444c0.361,-0.265 0.046,-0.674 -0.324,-0.518c-2.452,1.03 -5.131,1.53 -7.555,1.53c-3.594,0 -7.061,-0.971 -9.874,-2.592c-0.062,-0.035 -0.127,-0.055 -0.175,-0.049z"></path></g></g></svg>