<svg xmlns="http://www.w3.org/2000/svg" xmlns:xlink="http://www.w3.org/1999/xlink" viewBox="0,0,256,256" width="24px" height="24px" fill-rule="nonzero"><g fill="#ffffff" fill-rule="nonzero" stroke="none" stroke-width="1" stroke-linecap="butt" stroke-linejoin="miter" stroke-miterlimit="10" stroke-dasharray="" stroke-dashoffset="0" font-family="none" font-weight="none" font-size="none" text-anchor="none" style="mix-blend-mode: normal"><g transform="scale(10.66667,10.66667)"><path d="M18,3h-12c-1.654,0 -3,1.346 -3,3v12c0,1.654 1.346,3 3,3h12c1.654,0 3,-1.346 3,-3v-12c0,-1.654 -1.346,-3 -3,-3zM12.281,10.795c2.573,0.607 3.334,2.153 3.189,3.397c-0.183,1.571 -1.706,2.756 -3.561,2.8l-0.226,1.008h-2.049l0.315,-1.412c-1.232,-0.498 -2.208,-1.287 -2.358,-1.414l1.289,-1.529c0.449,0.376 1.851,1.355 2.926,1.355c1.016,0 1.401,-0.505 1.451,-0.94c0.057,-0.488 -0.37,-1.066 -1.437,-1.318c-3.036,-0.716 -3.059,-2.604 -2.993,-3.165c0.169,-1.454 1.632,-2.636 3.286,-2.687l0.2,-0.89h2.049l-0.258,1.155c1.451,0.431 2.26,1.226 2.304,1.272l-1.42,1.408c-0.04,-0.039 -0.999,-0.955 -2.766,-0.955c-0.794,0 -1.231,0.255 -1.329,0.679c-0.12,0.525 0.453,1.016 1.388,1.236z"></path></g></g></svg>