<svg xmlns="http://www.w3.org/2000/svg" xmlns:xlink="http://www.w3.org/1999/xlink" viewBox="0,0,256,256" width="24px" height="24px" fill-rule="nonzero"><g fill="#ffffff" fill-rule="nonzero" stroke="none" stroke-width="1" stroke-linecap="butt" stroke-linejoin="miter" stroke-miterlimit="10" stroke-dasharray="" stroke-dashoffset="0" font-family="none" font-weight="none" font-size="none" text-anchor="none" style="mix-blend-mode: normal"><g transform="scale(10.66667,10.66667)"><path d="M7,6c0.26919,-3.75901 3.46605,-6.63021 7.23228,-6.49553c3.76623,0.13468 6.74984,3.22689 6.74984,6.99553c0,3.76864 -2.98361,6.86085 -6.74984,6.99553c-3.76623,0.13468 -6.96309,-2.73652 -7.23228,-6.49553c0,0 NaN,NaN NaN,NaNcNaN,NaN NaN,NaN NaN,NaNzM18,6.5c0,8.97463 -3.35786,16.25 -7.5,16.25c-4.14214,0 -7.5,-7.27537 -7.5,-16.25c0,0 NaN,NaN NaN,NaNcNaN,NaN NaN,NaN NaN,NaNzM23,8c-0.16569,30.37566 -5.22487,54.32843 -11.3,53.5c-6.07513,-0.82843 -10.86569,-26.12434 -10.7,-56.5c0,0 NaN,NaN NaN,NaNcNaN,NaN NaN,NaN NaN,NaNz"></path></g></g></svg>