<svg xmlns="http://www.w3.org/2000/svg" xmlns:xlink="http://www.w3.org/1999/xlink" viewBox="0,0,256,256" width="24px" height="24px" fill-rule="nonzero"><g fill="#ffffff" fill-rule="nonzero" stroke="none" stroke-width="1" stroke-linecap="butt" stroke-linejoin="miter" stroke-miterlimit="10" stroke-dasharray="" stroke-dashoffset="0" font-family="none" font-weight="none" font-size="none" text-anchor="none" style="mix-blend-mode: normal"><g transform="scale(10.66667,10.66667)"><circle cx="7" cy="13" r="6" opacity="0.3"></circle><ellipse cx="18" cy="13" rx="2" ry="5.5" opacity="0.3"></ellipse><path d="M7,8c2.757,0 5,2.243 5,5c0,2.757 -2.243,5 -5,5c-2.757,0 -5,-2.243 -5,-5c0,-2.757 2.243,-5 5,-5M7,6c-3.866,0 -7,3.134 -7,7c0,3.866 3.134,7 7,7c3.866,0 7,-3.134 7,-7c0,-3.866 -3.134,-7 -7,-7z"></path><path d="M18,8.693c0.409,0.582 1,2.081 1,4.307c0,2.226 -0.591,3.725 -1,4.307c-0.409,-0.582 -1,-2.081 -1,-4.307c0,-2.226 0.591,-3.725 1,-4.307M18,6.5c-1.657,0 -3,2.91 -3,6.5c0,3.59 1.343,6.5 3,6.5c1.657,0 3,-2.91 3,-6.5c0,-3.59 -1.343,-6.5 -3,-6.5z"></path><ellipse cx="23" cy="13" rx="1" ry="5"></ellipse></g></g></svg>