<svg xmlns="http://www.w3.org/2000/svg" xmlns:xlink="http://www.w3.org/1999/xlink" viewBox="0,0,256,256" width="24px" height="24px" fill-rule="nonzero"><g fill="#ffffff" fill-rule="nonzero" stroke="none" stroke-width="1" stroke-linecap="butt" stroke-linejoin="miter" stroke-miterlimit="10" stroke-dasharray="" stroke-dashoffset="0" font-family="none" font-weight="none" font-size="none" text-anchor="none" style="mix-blend-mode: normal"><g transform="scale(10.66667,10.66667)"><path d="M17,3h-10c-2.2,0 -4,1.8 -4,4v10c0,2.2 1.8,4 4,4h10c2.2,0 4,-1.8 4,-4v-10c0,-2.2 -1.8,-4 -4,-4zM12.88,17.25c-3.5,0 -4.13,0 -4.13,0l-1.63,-10l3.63,-0.5l0.87,7.25c0,0 2.63,-3.75 1.5,-6.63c0.76,-0.12 3.26,-0.62 3.26,-0.62c0,0 2.87,1.75 -3.5,10.5z"></path></g></g></svg>