<svg xmlns="http://www.w3.org/2000/svg" xmlns:xlink="http://www.w3.org/1999/xlink" viewBox="0,0,256,256" width="24px" height="24px" fill-rule="nonzero"><g fill="#ffffff" fill-rule="nonzero" stroke="none" stroke-width="1" stroke-linecap="butt" stroke-linejoin="miter" stroke-miterlimit="10" stroke-dasharray="" stroke-dashoffset="0" font-family="none" font-weight="none" font-size="none" text-anchor="none" style="mix-blend-mode: normal"><g transform="scale(10.66667,10.66667)"><path d="M11.13672,2.01172c-1.20703,0.04297 -3.77344,0.82422 -4.30469,1.37891c-0.19531,0.20703 -0.28906,0.47656 -0.23047,0.70313c0.09766,0.19922 4.15234,6.66797 4.15234,6.66797c0.60156,0.98828 1.09375,0.83203 1.25391,0.78125c0.16016,-0.05078 0.64453,-0.19922 0.58984,-1.35547c-0.05859,-1.34766 -0.44141,-7.34766 -0.48828,-7.62891c-0.06641,-0.25391 -0.28125,-0.44922 -0.5625,-0.52344c-0.10937,-0.02344 -0.23828,-0.03125 -0.41016,-0.02344zM17.26172,7.92188c-0.12109,0.00781 -0.23047,0.03516 -0.33594,0.10547c-0.12891,0.08594 -0.22656,0.21094 -2.02344,2.70703c0,0 -0.80859,1.13672 -0.82031,1.14844c-0.21484,0.26172 -0.20703,0.63672 0,0.96094c0.21875,0.33984 0.5625,0.51172 0.89844,0.41797c0,0 0.00391,0.01953 0,0.02734c0.16406,-0.0625 0.46094,-0.15625 1,-0.28516c3.35547,-0.82812 3.48047,-0.85156 3.61328,-0.94141c0.19922,-0.13672 0.29688,-0.39062 0.28125,-0.67578c0,-0.00781 0,-0.01562 0,-0.02734c-0.08594,-0.83594 -1.51953,-3.00391 -2.23047,-3.35937c-0.125,-0.0625 -0.26562,-0.08203 -0.38281,-0.07812zM5.98828,11.28125c-0.24609,-0.00781 -0.46484,0.125 -0.61719,0.36719c-0.31641,0.52344 -0.44141,2.14063 -0.33203,3.23047c0.03906,0.35938 0.08594,0.67969 0.17969,0.85547c0.12891,0.25 0.34375,0.38281 0.58984,0.39453c0.15625,0.00391 0.27734,-0.02734 3.22656,-0.99219c0,0 1.30078,-0.41406 1.30859,-0.41797c0.32422,-0.08203 0.53906,-0.39062 0.5625,-0.78125c0.01953,-0.39844 -0.17969,-0.75781 -0.51172,-0.88281l-0.92187,-0.39062c-3.17578,-1.33203 -3.32422,-1.37891 -3.48438,-1.38281zM15.03125,14.95313c-0.24609,-0.00391 -0.51172,0.11328 -0.69141,0.33984c-0.25,0.3125 -0.27734,0.73438 -0.07812,1.04297l0.51172,0.85938c1.75391,2.89453 1.89844,3.07422 2.02344,3.17578c0.19531,0.15625 0.43359,0.18359 0.69141,0.07813c0.75,-0.30078 2.37109,-2.39453 2.48828,-3.20312c0.03906,-0.28125 -0.04297,-0.51953 -0.23437,-0.67578c-0.125,-0.09766 -0.22266,-0.13281 -3.17578,-1.12109c0,0 -1.28906,-0.43359 -1.30469,-0.44141c-0.07812,-0.03125 -0.14844,-0.05078 -0.23047,-0.05469zM11.44531,15.89063c-0.17187,0.03906 -0.32812,0.14844 -0.4375,0.28906l-0.64062,0.78125c-2.22656,2.65234 -2.30469,2.75781 -2.35547,2.91406c-0.03516,0.09375 -0.0625,0.21484 -0.05078,0.3125c0.01172,0.14453 0.07031,0.26172 0.17578,0.39063c0.51563,0.625 3.00391,1.54688 3.79297,1.40625c0.27344,-0.05078 0.45313,-0.17969 0.53906,-0.41406c0.05078,-0.15625 0.06641,-0.25781 0.07813,-3.41406c0,0 -0.00391,-1.39062 0,-1.40625c0.01953,-0.33984 -0.18359,-0.66406 -0.53906,-0.80469c-0.18359,-0.07422 -0.39062,-0.09375 -0.5625,-0.05469z"></path></g></g></svg>